<svg xmlns="http://www.w3.org/2000/svg" width="16" height="16" viewBox="0 0 16 16"><path stroke-width=".00032" d="M-.012 8v8.012h16.025V-.012H-.012V8zm14.544-.002v6.534H1.465V1.465h13.067v6.533z"/><path stroke-width=".00032" d="M10.611 2.827c-.383.02-.732.112-1.058.279a2.39 2.39 0 00-.704.542c-.313.352-.512.79-.573 1.26a2.393 2.393 0 00.3 1.506c.36.616.988 1.041 1.717 1.163.072.011.142.02.223.028.09.008.359.008.449 0 .198-.018.374-.051.544-.103a2.35 2.35 0 00.41-.166 2.36 2.36 0 001.294-2.362 2.364 2.364 0 00-.264-.872 2.308 2.308 0 00-.4-.54 2.437 2.437 0 00-1.08-.637 2.642 2.642 0 00-.858-.098zm.25 1.19c.346.037.645.22.84.514.197.298.254.688.152 1.043a1.154 1.154 0 01-1.284.84 1.157 1.157 0 01-.927-.79 1.312 1.312 0 01-.04-.658c.079-.396.34-.721.702-.87a1.173 1.173 0 01.557-.078zM3.165 4.222c0 .962.002 1.343.004 1.382.016.223.034.37.064.52.055.275.146.506.271.695.19.285.491.507.87.642.217.077.455.126.716.145.075.006.38.006.447 0 .14-.011.243-.025.35-.047.377-.075.69-.217.943-.428.052-.043.16-.151.2-.2.169-.208.278-.44.35-.742a3.36 3.36 0 00.079-.577c.003-.038.004-.407.005-1.385l.001-1.333H6.196L6.195 4.16c-.002 1.324-.001 1.288-.016 1.433-.014.15-.041.276-.081.386a1.01 1.01 0 01-.083.164c-.12.179-.295.281-.54.315a1.555 1.555 0 01-.268 0 .802.802 0 01-.434-.183c-.15-.128-.232-.314-.266-.598-.019-.152-.018-.064-.019-1.481v-1.3H3.162l.002 1.327zM2.91 10.852v2.324H4.183v-.823c0-.803-.002-1.163-.01-1.579-.004-.213-.004-.21.008-.21.002 0 .008.007.013.015.047.076.305.459.432.64l.722 1.014a51.548 51.548 0 001.167-1.669c.012 0 .012-.003.008.213-.008.417-.01.773-.01 1.578v.821h1.324V8.53h-.63l-.631.001-.595.844c-.327.465-.596.845-.598.845-.001 0-.272-.38-.6-.844l-.599-.845h-.637l-.637-.001v2.323zM10.093 8.536l-1.87 4.62-.008.02h1.367l.165-.46.17-.475.006-.017h.797l.796.001c0 .002.326.949.328.95h1.436l-.94-2.323-.94-2.322h-.652l-.652-.001-.003.007zm.676 1.5c.098.313.188.588.322.97l.084.242-.223.001h-.676l.069-.19c.192-.53.27-.758.375-1.103.004-.013.007-.017.012-.017.006 0 .01.01.037.097z"/></svg>