<svg xmlns="http://www.w3.org/2000/svg" viewBox="0 0 400 400"><path fill="#609" fill-rule="evenodd" d="M0 200v200h400V0H0v200m381.2 0v181.2H18.8V18.8h362.4V200m-63.9-12.4c-24.8 2-41.7 23-37.8 47a41.4 41.4 0 0047.8 33 40.2 40.2 0 0035.2-42.7 40.3 40.3 0 00-37-37.2c-1.4-.1-6.8-.2-8.2-.1m-124 23.2c0 22.1 0 23.3.3 26.4 1.4 14.5 7.2 23.2 18.7 27.8 9.7 3.9 23 4.1 32.8.6 11.1-4 17.4-11.6 19.6-23.4 1-5.5 1-6.3 1-32.3v-21.3h-21.4v20.1c0 25.2 0 26-1 30-1.9 7-7.2 10.6-14.7 10-6.6-.6-10.8-4.2-12.2-10.6-.7-3.4-.7-2-.7-27.2v-22.3H193.4v22.2m130-3c10 1.3 16.8 9.6 16.8 20 0 14.1-12.8 23.6-25.8 19.2-11-3.8-16.3-17.4-11-28.4a19.3 19.3 0 0120-10.9M189.1 322.5v39.1h21.5v-13.7a1374.8 1374.8 0 00-.2-30.1l1.2 1.6a444 444 0 0018.6 26.4 1217.8 1217.8 0 0019.6-28v24l-.1 19.8H272v-78.2h-21.2l-10 14.2-10.1 14.2-.3-.3-10-14.3-9.9-13.8h-21.4v39m120.8-39L294 322.7l-15.7 39h23A831.3 831.3 0 00307 346l.2-.4H333.8l2.7 8 2.7 7.9h12.2c11.5 0 12.1 0 12-.1l-15.7-39.2-15.8-39h-11c-8.7 0-11 0-11 .2m11.8 27a488.2 488.2 0 006.3 18.7 388.9 388.9 0 01-15 0l1.5-4.2a332.5 332.5 0 006.1-17.8l1.1 3.2"/></svg>