<svg data-name="Layer 1" xmlns="http://www.w3.org/2000/svg" width="640.7" height="577.2"><path d="M158.7 146.4c-11-33-45-51.2-67.4-43.7s-38.5 42.5-27.5 75.5c10.2 30.5 41 48 62.3 45a2.4 2.4 0 00-.3.8l-.6 5.4a2.4 2.4 0 003.2 2.6l11-4a2.4 2.4 0 00.9-4l-4-3.8a2.4 2.4 0 00-.4-.3c19-10.2 33-43 22.8-73.5z" fill="#f2f2f2"/><path d="M118.9 122.2a40.2 40.2 0 0118.1 52.2c-1 2.2 2.6 3.3 3.5 1.2A44 44 0 00121 119c-2-1-4.1 2-2 3z" fill="#fff"/><path d="M604.7 98.4c-11-33-45-51.2-67.4-43.7s-38.5 42.5-27.5 75.5c10.2 30.5 41 48 62.3 45a2.4 2.4 0 00-.3.8l-.6 5.4a2.4 2.4 0 003.2 2.6l11-4a2.4 2.4 0 00.9-4l-4-3.8a2.4 2.4 0 00-.4-.3c19-10.2 33-43 22.8-73.5z" fill="#f2f2f2"/><path d="M564.9 74.2a40.2 40.2 0 0118.1 52.2c-1 2.2 2.6 3.3 3.5 1.2A44 44 0 00567 71c-2-1-4.1 2-2 3z" fill="#fff"/><path d="M345.7 45.4c-11-33-45-51.2-67.4-43.7s-38.5 42.5-27.5 75.5c10.2 30.5 41 48 62.3 45a2.4 2.4 0 00-.3.8l-.6 5.4a2.4 2.4 0 003.2 2.6l11-4a2.4 2.4 0 00.9-4l-4-3.8a2.4 2.4 0 00-.4-.3c19-10.2 33-43 22.8-73.5z" fill="#f2f2f2"/><path d="M305.9 21.2A40.2 40.2 0 01324 73.4c-1 2.2 2.6 3.3 3.5 1.2A44 44 0 00308 18c-2-1-4.1 2-2 3z" fill="#fff"/><circle cx="290.5" cy="201.2" r="2.6" fill="#ccc"/><circle cx="284.9" cy="304" r="5.2" fill="#ccc"/><circle cx="198.1" cy="286.2" r="3" fill="#ccc"/><circle cx="243.6" cy="236.9" r="3.2" fill="#ccc"/><circle cx="403.3" cy="427.4" r="2.6" fill="#ccc"/><circle cx="317.3" cy="370.9" r="5.2" fill="#ccc"/><circle cx="376.3" cy="304.9" r="3" fill="#ccc"/><circle cx="396" cy="369" r="3.2" fill="#ccc"/><ellipse cx="836.6" cy="684.2" rx="6.8" ry="21.5" transform="rotate(-39.9 474.7 988.4)" fill="#2f2e41"/><circle cx="511.2" cy="515.4" r="43.1" fill="#2f2e41"/><path fill="#2f2e41" d="M516.3 549.2h13.1v23.4h-13.1zM490.1 549.2h13.1v23.4h-13.1z"/><ellipse cx="518.5" cy="572.9" rx="10.9" ry="4.1" fill="#2f2e41"/><ellipse cx="492.3" cy="572.3" rx="10.9" ry="4.1" fill="#2f2e41"/><path d="M497.6 461.2c3.9-15.5 20.9-24.6 38-20.3s27.8 20.2 24 35.7-16.7 15.5-33.8 11.3-32-11.2-28.2-26.7z" fill="#e6e6e6"/><ellipse cx="742.3" cy="656.8" rx="6.8" ry="21.5" transform="rotate(-64.6 474.9 797.2)" fill="#2f2e41"/><circle cx="504.7" cy="506.3" r="14.4" fill="#fff"/><circle cx="498.8" cy="501.1" r="4.8" fill="#3f3d56"/><path d="M513.7 536.2a9.6 9.6 0 01-18.8 3.4c-1-5.2 3-7 8.3-8s9.6-.6 10.5 4.6z" fill="#fff"/><ellipse cx="430.4" cy="644.2" rx="21.5" ry="6.8" transform="rotate(-69.1 173.4 766.7)" fill="#2f2e41"/><circle cx="111" cy="515.4" r="43.1" fill="#2f2e41"/><path fill="#2f2e41" d="M91.3 549.2h13.1v23.4H91.3zM117.5 549.2h13.1v23.4h-13.1z"/><ellipse cx="102.2" cy="572.9" rx="10.9" ry="4.1" fill="#2f2e41"/><ellipse cx="128.4" cy="572.3" rx="10.9" ry="4.1" fill="#2f2e41"/><circle cx="112" cy="504.4" r="14.7" fill="#fff"/><circle cx="112" cy="504.4" r="4.9" fill="#3f3d56"/><path d="M69.2 475.3c-3.5-15.6 7.6-31.3 24.8-35.1s34 5.6 37.4 21.2-7.9 21.3-25 25.2-33.7 4.3-37.2-11.3z" fill="#e6e6e6"/><ellipse cx="342.1" cy="656.8" rx="6.8" ry="21.5" transform="rotate(-64.6 74.7 797.2)" fill="#2f2e41"/><path d="M89.8 530.9c0 4.2 10.9 12.5 22.9 12.5s23.3-11.8 23.3-16-11.3.8-23.3.8-22.9-1.5-22.9 2.7z" fill="#fff"/><circle cx="316.7" cy="474.4" r="43.1" fill="#2f2e41"/><path fill="#2f2e41" d="M297.1 508.2h13.1v23.4h-13.1zM323.2 508.2h13.1v23.4h-13.1z"/><ellipse cx="308" cy="531.9" rx="10.9" ry="4.1" fill="#2f2e41"/><ellipse cx="334.1" cy="531.3" rx="10.9" ry="4.1" fill="#2f2e41"/><path d="M274.9 434.3c-3.5-15.6 7.6-31.3 24.8-35.1s34 5.6 37.5 21.2-8 21.3-25.2 25.2-33.6 4.3-37.1-11.3z" fill="#609"/><ellipse cx="637.5" cy="611.6" rx="23.9" ry="7.5" transform="rotate(-45 302.9 868.3)" fill="#2f2e41"/><ellipse cx="544.7" cy="614.6" rx="7.5" ry="23.9" transform="rotate(-45 210 871.7)" fill="#2f2e41"/><path d="M578.5 201c-1.4-44.1-31.7-79-67.5-77.8-79.9 2.3-81.9 148.8-4.8 159.3l-1.6 13 23.8-.8-2.4-12.9c31-6.8 53.8-40.7 52.5-80.8z" fill="#ff6584"/><path d="M471.2 225.5l-9 .3a146.5 146.5 0 01-1.6-51l9-.3q-5 26.7 1.6 51z" fill="#fff"/><path fill="#3f3d56" d="M502.6 282.5l27-.8.2 6-27 .8z"/><path fill="#3f3d56" d="M451.2 511.3l-2.7-1.3 66.8-226.6 2.7 1.3-66.8 226.6z"/><path d="M633.8 238.4c16.3-41.1 2.5-85.1-30.9-98.4-74.1-29.7-134.4 103.8-67.9 144.2l-6.6 11.3 22 8.8 3-12.8c31.1 6 65.6-16 80.4-53.1z" fill="#609"/><path d="M525.7 218l-8.4-3.3a146.5 146.5 0 0118.9-47.4l8.3 3.3Q529.3 193 525.7 218z" fill="#fff"/><path fill="#3f3d56" d="M529.5 288.4l2.2-5.6 25.1 10-2.2 5.5z"/><path fill="#3f3d56" d="M450.7 505.3l-2.6-1.5L541.4 291l2.6 1.4-93.3 213z"/><path d="M126.8 203.9c-17.7-40.5-58.6-61.7-91.6-47.4-73.3 31.7-21 168.5 54.6 149.8l3.2 12.6 21.9-9.5-7-11c26.2-17.8 34.9-57.8 18.9-94.5z" fill="#609"/><path d="M36.2 266.3l-8.3 3.6A146.5 146.5 0 017.6 223l8.2-3.6q5.2 26.6 20.4 46.8z" fill="#fff"/><path fill="#3f3d56" d="M86.3 307.7l24.8-10.8 2.4 5.5-24.8 10.8z"/><path d="M168.4 511.9a1.5 1.5 0 01-1.8-1.1L101.4 304l2.9-.7L169.5 510a1.5 1.5 0 01-1 1.9z" fill="#3f3d56"/><path d="M185.8 577.2h-157a1 1 0 010-2h157a1 1 0 010 2zM584.8 577.2h-157a1 1 0 010-2h157a1 1 0 010 2zM397.8 536.2h-157a1 1 0 010-2h157a1 1 0 010 2z" fill="#ccc"/><circle cx="314.9" cy="468.2" r="14.7" fill="#fff"/><circle cx="314.9" cy="468.2" r="4.9" fill="#3f3d56"/><path d="M326.6 495.5a9.6 9.6 0 01-18.9 3.4c-1-5.2 3-7 8.3-8s9.6-.6 10.6 4.6z" fill="#fff"/></svg>